Simulation
nRows=27
nColumns=15
endheader
time  TH_x TH_y TH_z SC_y  SC_z  SC_x  AC_y  AC_z  AC_x  GH_y  GH_z  GH_yy  EL_x  PS_y
0.0  0.000000  0.000000  0.000000  -28.93525717625227  0.9537495788184647  -4.600340296953026  55.22541443830883  9.273991677238502  -4.108220948090889  33.153252727006716  16.11566867141551  7.7775593190111145  27.168425904938047  0.000000
0.038999999999999986  0.000000  0.000000  0.000000  -28.412245271947885  1.2152951338918185  -4.611250275007405  54.85922840297327  9.168517311654034  -4.115180857273658  33.22086790017811  16.497195767269105  7.445858906563504  26.742896416140677  0.000000
0.07799999999999997  0.000000  0.000000  0.000000  -27.932421090048162  1.4006981319014071  -4.705070139392742  54.49317574736459  9.031481404500354  -4.139399638588634  33.21662795771071  16.796540378513104  7.209199213052339  26.311915053168384  0.000000
0.11699999999999997  0.000000  0.000000  0.000000  -27.512616713860318  1.5017138454240424  -4.8748200338112575  54.16750155439664  8.91767955864837  -4.156265805696453  33.28287396394314  17.076889449219106  6.900049504200248  25.90193053261645  0.000000
0.15599999999999994  0.000000  0.000000  0.000000  -27.167773217716746  1.5179033711648349  -5.091237548814541  53.925536062580136  8.865035572054392  -4.154047566598202  33.569857531766814  17.41646559499056  6.3147768366932775  25.532288480785688  0.000000
0.19499999999999992  0.000000  0.000000  0.000000  -26.917621273132177  1.4689860830392683  -5.304573008715965  53.79926606812474  8.885056987074286  -4.126946112897673  34.2096851470624  17.891814931673466  5.268136226593343  25.221791506932835  0.000000
0.23399999999999993  0.000000  0.000000  0.000000  -26.765088449411703  1.3841568532894177  -5.463759667110093  53.797475663034945  8.973635541076844  -4.080577368398119  35.290134295991166  18.564648892524467  3.6184651854728127  24.98269208177361  0.000000
0.2729999999999999  0.000000  0.000000  0.000000  -26.702516355005905  1.2935575096447436  -5.523944807664862  53.914031399096004  9.115295714182153  -4.025882478370059  36.813894419978396  19.479546008644558  1.322359616740435  24.817500447510195  0.000000
0.3119999999999999  0.000000  0.000000  0.000000  -26.702414552019373  1.2234743761105265  -5.451791633222401  54.129535541290025  9.288459815808773  -3.9767166209235043  38.69442708591938  20.659295963047747  -1.5636402706923485  24.721709233050998  0.000000
0.35099999999999987  0.000000  0.000000  0.000000  -26.723719683857617  1.1917424392364364  -5.2251899669343365  54.42265948370418  9.471127110599433  -3.9459623418528436  40.7674528757604  22.103332036583165  -4.884078870372522  24.686375923709985  0.000000
0.38999999999999985  0.000000  0.000000  0.000000  -26.718077723141356  1.2103310529881401  -4.83182152580337  54.770017422070886  9.644231839065954  -3.943420927936959  42.84551544517068  23.786528303560203  -8.441250287372117  24.706046667057432  0.000000
0.4289999999999998  0.000000  0.000000  0.000000  -26.642927118235388  1.2856802648678238  -4.2657631027160585  55.151160570964215  9.794193905355776  -3.976319696031215  44.767222216596124  25.663740363527936  -12.04439772205706  24.77514788710138  0.000000
0.46799999999999986  0.000000  0.000000  0.000000  -26.469174344456704  1.4194745186315563  -3.52612945817828  55.546767603725044  9.913466493862323  -4.049994636394237  46.43168660467365  27.67799468980564  -15.552949025091866  24.88163706448705  0.000000
0.5069999999999998  0.000000  0.000000  0.000000  -26.18785139953371  1.6117081168515093  -2.615766742245348  55.9397470010623  9.998417124361433  -4.167248441709635  47.80522246964185  29.770645770002726  -18.891017553305044  25.006716727831602  0.000000
0.5459999999999998  0.000000  0.000000  0.000000  -25.811809826505556  1.8629077078935707  -1.5399057735985962  56.31381588280415  10.045290883474966  -4.327575289271945  48.91069580997052  31.890105153192767  -22.044205359472446  25.129563031121418  0.000000
0.5849999999999997  0.000000  0.000000  0.000000  -25.372209441780612  2.1730441191010272  -0.30685296022596914  56.654818366468746  10.049412923653366  -4.52771337207203  49.805569635044186  33.99766757895316  -25.04376535482212  25.23165136753745  0.000000
0.6239999999999998  0.000000  0.000000  0.000000  -24.910354486525208  2.5398559555520346  1.0708216247024378  56.95246160053425  10.00671200330062  -4.761100897977569  50.55770541853769  36.068537291717426  -27.940659998490663  25.299173912701814  0.000000
0.6629999999999998  0.000000  0.000000  0.000000  -24.46595206959629  2.9587074406403833  2.5760590871001985  57.2029084507428  9.916175164644569  -5.0167867449747865  51.22325354935975  38.088315347497684  -30.77581424716835  25.32391088005496  0.000000
0.7019999999999997  0.000000  0.000000  0.000000  -24.067392454509857  3.423272723725919  4.1888398182132045  57.41021653434149  9.781653620078806  -5.278564519864786  51.83230665823599  40.04689272590785  -33.553824585789734  25.30231708458887  0.000000
0.7409999999999998  0.000000  0.000000  0.000000  -23.727100654867925  3.926409254723903  5.887635240128361  57.585153035052905  9.611835228225281  -5.525445463973995  52.384656849378366  41.93298642994305  -36.233509364772594  25.234847917802426  0.000000
0.7799999999999997  0.000000  0.000000  0.000000  -23.445271549574333  4.460612981605467  7.649316425415669  57.74167801853731  9.418446425617747  -5.733381351130087  52.85768032965036  43.731725447039146  -38.739501232604084  25.126293357975065  0.000000
0.8189999999999997  0.000000  0.000000  0.000000  -23.217758510730626  5.0185921279346495  9.446704299287887  57.89225791247892  9.213463093988246  -5.877313191025284  53.22009831111077  45.42618610855356  -40.98923177777072  24.987594928779135  0.000000
0.8579999999999997  0.000000  0.000000  0.000000  -23.043762117751168  5.5935724403004725  11.246159323295428  58.04506578919901  9.007438177505053  -5.933631673649636  53.44517317184345  47.001243853859705  -42.91953074441717  24.836051085652276  0.000000
0.8969999999999997  0.000000  0.000000  0.000000  -22.92878851231437  6.179835499664671  13.007657498584654  58.203678017374514  8.809610508114744  -5.882356322989897  53.5173636399757  48.447320460836366  -44.5003905436232  24.693198780123772  0.000000
0.9359999999999997  0.000000  0.000000  0.000000  -22.883333236093858  6.772707950213101  14.688651765043698  58.36896183907543  8.62977245606076  -5.709437689990669  53.434263261520364  49.76238002877593  -45.73518998587904  24.578953613227725  0.000000
0.9749999999999996  0.000000  0.000000  0.000000  -22.918941626835807  7.3681499357802975  16.24997109548177  58.54102049097539  8.479640706360987  -5.408285175754925  53.2054375461161  50.95235223949591  -46.65350566513846  24.50507607294227  0.000000
1.0139999999999996  0.000000  0.000000  0.000000  -23.04433633988547  7.961975084420505  17.661433139001975  58.71986222233331  8.373099086736136  -4.980656632991274  52.85115440955385  52.02945412295267  -47.30336553674338  24.471358115722836  0.000000
